<?xml version="1.0" encoding="UTF-8"?>
<svg width="12px" height="12px" viewBox="0 0 12 12" version="1.1" xmlns="http://www.w3.org/2000/svg" xmlns:xlink="http://www.w3.org/1999/xlink">
    <!-- Generator: Sketch 50.2 (55047) - http://www.bohemiancoding.com/sketch -->
    <title>icon_logout</title>
    <desc>Created with Sketch.</desc>
    <defs></defs>
    <g id="医学数据分析服务平台" stroke="none" stroke-width="1" fill="none" fill-rule="evenodd">
        <g id="004-声学参数处理与分析系统-首页1" transform="translate(-1711.000000, -20.000000)" fill="#31C0C4" fill-rule="nonzero">
            <path d="M1713.57143,28.1428571 C1713.46429,28.1428571 1713.35714,28.1 1713.27143,28.0142857 L1711.12857,25.8714286 C1710.95714,25.7 1710.95714,25.4428571 1711.12857,25.2714286 L1713.27143,23.1285714 C1713.44286,22.9571429 1713.7,22.9571429 1713.87143,23.1285714 C1714.04286,23.3 1714.04286,23.5571429 1713.87143,23.7285714 L1712.02857,25.5714286 L1713.87143,27.4142857 C1714.04286,27.5857143 1714.04286,27.8428571 1713.87143,28.0142857 C1713.78571,28.1 1713.67857,28.1428571 1713.57143,28.1428571 Z M1719.14286,26 L1711.64286,26 C1711.40714,26 1711.21429,25.8071429 1711.21429,25.5714286 C1711.21429,25.3357143 1711.40714,25.1428571 1711.64286,25.1428571 L1719.14286,25.1428571 C1719.37857,25.1428571 1719.57143,25.3357143 1719.57143,25.5714286 C1719.57143,25.8071429 1719.37857,26 1719.14286,26 Z M1721.71429,31.1428571 L1717,31.1428571 C1716.29286,31.1428571 1715.71429,30.5642857 1715.71429,29.8571429 L1715.71429,28.1428571 C1715.71429,27.9071429 1715.90714,27.7142857 1716.14286,27.7142857 C1716.37857,27.7142857 1716.57143,27.9071429 1716.57143,28.1428571 L1716.57143,29.8571429 C1716.57143,30.0928571 1716.76429,30.2857143 1717,30.2857143 L1721.71429,30.2857143 C1721.95,30.2857143 1722.14286,30.0928571 1722.14286,29.8571429 L1722.14286,21.2857143 C1722.14286,21.05 1721.95,20.8571429 1721.71429,20.8571429 L1717,20.8571429 C1716.76429,20.8571429 1716.57143,21.05 1716.57143,21.2857143 L1716.57143,23 C1716.57143,23.2357143 1716.37857,23.4285714 1716.14286,23.4285714 C1715.90714,23.4285714 1715.71429,23.2357143 1715.71429,23 L1715.71429,21.2857143 C1715.71429,20.5785714 1716.29286,20 1717,20 L1721.71429,20 C1722.42143,20 1723,20.5785714 1723,21.2857143 L1723,29.8571429 C1723,30.5642857 1722.42143,31.1428571 1721.71429,31.1428571 Z" id="icon_logout" transform="translate(1717.000000, 25.571429) rotate(-180.000000) translate(-1717.000000, -25.571429) "></path>
        </g>
    </g>
</svg>