<?xml version="1.0" encoding="UTF-8"?>
<svg width="134px" height="30px" viewBox="0 0 134 30" version="1.1" xmlns="http://www.w3.org/2000/svg" xmlns:xlink="http://www.w3.org/1999/xlink">
    <!-- Generator: Sketch 50.2 (55047) - http://www.bohemiancoding.com/sketch -->
    <title>logo</title>
    <desc>Created with Sketch.</desc>
    <defs>
        <linearGradient x1="-40.7689145%" y1="49.7500002%" x2="101.257813%" y2="49.7500002%" id="linearGradient-1">
            <stop stop-color="#3023AE" offset="0%"></stop>
            <stop stop-color="#53A0FD" offset="47.5247532%"></stop>
            <stop stop-color="#B4EC51" offset="100%"></stop>
        </linearGradient>
        <path d="M22.800262,14.9280438 L23.75,14.9280438 L23.75,18.1422708 L22.800262,18.1422708 L22.800262,14.9280438 Z M19.9503202,9.57154583 L20.8993305,9.57154583 L20.8993305,23.4995896 L19.9503202,23.4995896 L19.9503202,9.57154583 Z M17.1003784,12.7857729 L18.0501164,12.7857729 L18.0501164,21.3564979 L17.1003784,21.3564979 L17.1003784,12.7857729 Z M14.2497089,6.35731873 L15.2001747,6.35731873 L15.2001747,25.6426813 L14.2497089,25.6426813 L14.2497089,6.35731873 Z M12.3516884,1 L12.3516884,31 L11.3997671,31 L11.4012226,1 L12.3516884,1 Z M8.54982534,6.35731873 L9.50029111,6.35731873 L9.50029111,25.6426813 L8.54982534,25.6426813 L8.54982534,6.35731873 Z M5.69988355,12.7857729 L6.65034932,12.7857729 L6.65034932,21.3564979 L5.69988355,21.3564979 L5.69988355,12.7857729 Z M2.85066955,9.57154583 L3.80040756,9.57154583 L3.80040756,23.4995896 L2.85066955,23.4995896 L2.85066955,9.57154583 Z M0,14.9280438 L0.94973801,14.9280438 L0.94973801,18.1422708 L0,18.1422708 L0,14.9280438 Z" id="path-2"></path>
    </defs>
    <g id="医学数据分析服务平台" stroke="none" stroke-width="1" fill="none" fill-rule="evenodd">
        <g id="004-声学参数处理与分析系统-首页1" transform="translate(-28.000000, -28.000000)">
            <g id="logo" transform="translate(28.000000, 27.000000)">
                <text id="声学参数处理与分析系统" font-family="MicrosoftYaHei, Microsoft YaHei" font-size="8" font-weight="normal" fill="#FFFFFF">
                    <tspan x="46" y="29">声学参数处理与分析系统</tspan>
                </text>
                <text id="Acoustics" font-family="MicrosoftYaHei-Bold, Microsoft YaHei" font-size="16" font-weight="bold">
                    <tspan x="46" y="17" fill="#2FB3B0">A</tspan>
                    <tspan x="58.03125" y="17" font-family="MicrosoftYaHei, Microsoft YaHei" font-weight="normal" fill="#FFFFFF">coustics</tspan>
                </text>
                <g id="Shape" fill-rule="nonzero">
                    <use fill="#FFFFFF" fill-rule="evenodd" xlink:href="#path-2"></use>
                    <use fill="url(#linearGradient-1)" fill-rule="evenodd" xlink:href="#path-2"></use>
                </g>
            </g>
        </g>
    </g>
</svg>