<?xml version="1.0" encoding="UTF-8"?>
<svg width="20px" height="20px" viewBox="0 0 20 20" version="1.1" xmlns="http://www.w3.org/2000/svg" xmlns:xlink="http://www.w3.org/1999/xlink">
    <!-- Generator: Sketch 50.2 (55047) - http://www.bohemiancoding.com/sketch -->
    <title>nav003</title>
    <desc>Created with Sketch.</desc>
    <defs></defs>
    <g id="菜单样式" stroke="none" stroke-width="1" fill="none" fill-rule="evenodd">
        <g id="菜单-全不选-copy" transform="translate(-35.000000, -129.000000)" fill="#FFFFFF" fill-rule="nonzero">
            <path d="M54.1667171,144.000029 L52.5000342,144.000029 L52.5000342,143.166707 L53.3333561,143.166707 C53.7935914,143.166707 54.1666781,142.793621 54.1666781,142.333385 L54.1666781,139.833381 C54.1666781,139.373145 53.7935914,139.000059 53.3333561,139.000059 L52.5000342,139.000059 L52.5000342,138.166737 C52.9602695,138.166737 53.3333561,137.79365 53.3333561,137.333415 L53.3333561,134.83341 C53.3333561,134.373175 52.9602695,134.000088 52.5000342,134.000088 L51.6667122,134.000088 L51.6667122,133.166766 C52.1269475,133.166766 52.5000342,132.793679 52.5000342,132.333444 L52.5000342,129.833439 C52.5000342,129.373087 52.1269475,129 51.6667122,129 L46.6667025,129 C46.2064672,129 45.8333805,129.373087 45.8333805,129.833322 L45.8333805,132.333327 C45.8333805,132.793562 46.2064672,133.166649 46.6667025,133.166649 L46.6667025,134.00001 L45.8333805,134.00001 C45.3731062,134.00001 45.0000195,134.373096 45.0000195,134.833332 L45.0000195,137.333337 C45.0000195,137.793572 45.3731062,138.166659 45.8333415,138.166659 L45.8333415,139.00002 L45.0000195,139.00002 C44.5397843,139.00002 44.1666976,139.373106 44.1666976,139.833341 L44.1666976,142.333346 C44.1666976,142.793582 44.5397843,143.166668 45.0000195,143.166668 L45.8333415,143.166668 L45.8333415,144.000029 L44.1666585,144.000029 C43.7064233,144.000029 43.3333366,144.373116 43.3333366,144.833351 L43.3333366,147.333356 C43.3333366,147.793591 43.7064233,148.166678 44.1666585,148.166678 L54.1666781,148.166678 C54.6269133,148.166678 55,147.793591 55,147.333356 L55,144.833351 C55.0000391,144.373116 54.6269524,144.000029 54.1667171,144.000029 Z M47.5000244,130.666683 L50.8333512,130.666683 L50.8333512,131.500005 L47.5000244,131.500005 L47.5000244,130.666683 Z M48.3333464,133.166688 L50.0000293,133.166688 L50.0000293,134.00001 L48.3333464,134.00001 L48.3333464,133.166688 L48.3333464,133.166688 Z M46.6667025,135.666693 L51.6667122,135.666693 L51.6667122,136.500015 L46.6667025,136.500015 L46.6667025,135.666693 Z M47.5000244,138.166698 L50.8333512,138.166698 L50.8333512,139.00002 L47.5000244,139.00002 L47.5000244,138.166698 Z M45.8333415,140.666702 L52.5000342,140.666702 L52.5000342,141.500024 L45.8333415,141.500024 L45.8333415,140.666702 Z M47.5000244,143.166707 L50.8333512,143.166707 L50.8333512,144.000029 L47.5000244,144.000029 L47.5000244,143.166707 Z M53.3333561,146.500034 L45.0000195,146.500034 L45.0000195,145.666712 L53.3333561,145.666712 L53.3333561,146.500034 Z M39.1666878,129 C39.6269231,129 40.0000098,129.373087 39.9999707,129.833322 L39.9999707,133.166688 C39.9999707,133.626923 39.626884,134.00001 39.1666488,134.00001 L38.3333268,134.00001 L38.3333268,148.166717 C38.3333268,148.626952 37.9602402,149.000039 37.5000049,149.000039 C37.0397696,149.000039 36.6666829,148.626952 36.6666439,148.166717 L36.6666439,134.00001 L35.8333219,134.00001 C35.3730867,134.00001 35,133.626923 35,133.166649 L35,129.833322 C35,129.373087 35.3730867,129 35.8333219,129 L39.1666878,129 Z M38.3333268,132.333327 L38.3333659,132.333327 L38.3333659,130.666683 L36.6666829,130.666683 L36.6666829,132.333327 L38.3333268,132.333327 Z" id="nav003"></path>
        </g>
    </g>
</svg>