<?xml version="1.0" encoding="UTF-8"?>
<svg width="20px" height="20px" viewBox="0 0 20 20" version="1.1" xmlns="http://www.w3.org/2000/svg" xmlns:xlink="http://www.w3.org/1999/xlink">
    <!-- Generator: Sketch 50.2 (55047) - http://www.bohemiancoding.com/sketch -->
    <title>nav004</title>
    <desc>Created with Sketch.</desc>
    <defs></defs>
    <g id="菜单样式" stroke="none" stroke-width="1" fill="none" fill-rule="evenodd">
        <g id="菜单-全不选-copy" transform="translate(-35.000000, -184.000000)" fill="#FFFFFF" fill-rule="nonzero">
            <path d="M52.73,184 L37.27,184 C36.0164453,184 35,185.016445 35,186.27 L35,201.73 C35,202.983555 36.0164453,204 37.27,204 L52.73,204 C53.9835547,204 55,202.983555 55,201.73 L55,186.27 C55,185.016445 53.9835547,184 52.73,184 Z M53.3333203,201.73 C53.3333203,202.063086 53.0630859,202.33332 52.73,202.33332 L37.27,202.33332 C36.9369141,202.33332 36.6666797,202.063086 36.6666797,201.73 L36.6666797,186.27 C36.6666797,185.936914 36.9369141,185.66668 37.27,185.66668 L52.73,185.66668 C53.0630859,185.66668 53.3333203,185.936914 53.3333203,186.27 L53.3333203,201.73 Z M41.6667578,194 L42.5000781,194 C42.9603125,194 43.3333984,193.626914 43.3333984,193.16668 L43.3333984,189.833359 C43.3333984,189.373125 42.9603125,189.000039 42.5000781,189.000039 L41.6667578,189.000039 L41.6667578,187.33332 C41.6667578,186.873086 41.2936719,186.5 40.8334375,186.5 C40.3732031,186.5 40.0001172,186.873086 40.0001172,187.33332 L40.0001172,189 L39.1667969,189 C38.7065625,189 38.3334766,189.373086 38.3334766,189.83332 L38.3334766,193.166641 C38.3334766,193.626875 38.7065625,193.999961 39.1667969,193.999961 L40.0001172,193.999961 L40.0001172,195.666641 C40.0001172,196.126875 40.3732031,196.499961 40.8334375,196.499961 C41.2936719,196.499961 41.6667578,196.126875 41.6667578,195.666641 L41.6667578,194 Z M40.0000781,190.66668 L41.6667578,190.66668 L41.6667578,192.333359 L40.0000781,192.333359 L40.0000781,190.66668 Z M50.0000781,192.33332 L50.8333984,192.33332 C51.2936328,192.33332 51.6667187,191.960234 51.6667187,191.5 L51.6667187,188.16668 C51.6667187,187.706445 51.2936328,187.333359 50.8333984,187.333359 L47.5000781,187.333359 C47.0398437,187.333359 46.6667578,187.706445 46.6667578,188.16668 L46.6667578,191.5 C46.6667578,191.960234 47.0398437,192.33332 47.5000781,192.33332 L48.3333984,192.33332 L48.3333984,195.666641 C48.3333984,196.126875 48.7064844,196.499961 49.1667187,196.499961 C49.6269531,196.499961 50.0000391,196.126875 50.0000391,195.666641 L50.0000391,192.33332 L50.0000781,192.33332 Z M48.3334375,189 L50.0001172,189 L50.0001172,190.66668 L48.3334375,190.66668 L48.3334375,189 Z M39.1667578,197.33332 L38.3333984,197.33332 C37.8731641,197.33332 37.5000781,197.706406 37.5000781,198.166641 C37.5000781,198.626875 37.8731641,199 38.3333984,199 L39.1667188,199 C39.6269531,199 40.0000391,198.626914 40.0000391,198.16668 C40.0000391,197.706445 39.6269922,197.33332 39.1667578,197.33332 Z M43.3333984,197.33332 L42.5000781,197.33332 C42.0398437,197.33332 41.6667578,197.706406 41.6667578,198.166641 C41.6667578,198.626875 42.0398437,199 42.5000781,199 L43.3333984,199 C43.7936328,199 44.1667187,198.626914 44.1667187,198.16668 C44.1667187,197.706445 43.7936719,197.33332 43.3333984,197.33332 Z M47.5000781,197.33332 L46.6667578,197.33332 C46.2065234,197.33332 45.8334375,197.706406 45.8334375,198.166641 C45.8334375,198.626875 46.2065234,199 46.6667578,199 L47.5000781,199 C47.9603125,199 48.3333984,198.626914 48.3333984,198.16668 C48.3333984,197.706445 47.9603125,197.33332 47.5000781,197.33332 Z M51.6667578,197.33332 L50.8334375,197.33332 C50.3732031,197.33332 50.0001172,197.706406 50.0001172,198.166641 C50.0001172,198.626875 50.3731641,199 50.8334375,199 L51.6667578,199 C52.1269922,199 52.5000781,198.626914 52.5000781,198.16668 C52.5000781,197.706445 52.1269922,197.33332 51.6667578,197.33332 Z M39.1667578,199.83332 L38.3333984,199.83332 C37.8731641,199.83332 37.5000781,200.206406 37.5000781,200.666641 C37.5000781,201.126875 37.8731641,201.5 38.3333984,201.5 L39.1667188,201.5 C39.6269531,201.5 40.0000391,201.126914 40.0000391,200.66668 C40.0000391,200.206445 39.6269922,199.83332 39.1667578,199.83332 Z M43.3333984,199.83332 L42.5000781,199.83332 C42.0398437,199.83332 41.6667578,200.206406 41.6667578,200.666641 C41.6667578,201.126875 42.0398437,201.5 42.5000781,201.5 L43.3333984,201.5 C43.7936328,201.5 44.1667187,201.126914 44.1667187,200.66668 C44.1667187,200.206445 43.7936719,199.83332 43.3333984,199.83332 Z M47.5000781,199.83332 L46.6667578,199.83332 C46.2065234,199.83332 45.8334375,200.206406 45.8334375,200.666641 C45.8334375,201.126875 46.2065234,201.5 46.6667578,201.5 L47.5000781,201.5 C47.9603125,201.5 48.3333984,201.126914 48.3333984,200.66668 C48.3333984,200.206445 47.9603125,199.83332 47.5000781,199.83332 Z M51.6667578,199.83332 L50.8334375,199.83332 C50.3732031,199.83332 50.0001172,200.206406 50.0001172,200.666641 C50.0001172,201.126875 50.3731641,201.5 50.8334375,201.5 L51.6667578,201.5 C52.1269922,201.5 52.5000781,201.126914 52.5000781,200.66668 C52.5000781,200.206445 52.1269922,199.83332 51.6667578,199.83332 Z" id="nav004"></path>
        </g>
    </g>
</svg>