<?xml version="1.0" encoding="UTF-8"?>
<svg width="12px" height="12px" viewBox="0 0 12 12" version="1.1" xmlns="http://www.w3.org/2000/svg" xmlns:xlink="http://www.w3.org/1999/xlink">
    <!-- Generator: Sketch 50.2 (55047) - http://www.bohemiancoding.com/sketch -->
    <title>icon_management</title>
    <desc>Created with Sketch.</desc>
    <defs></defs>
    <g id="医学数据分析服务平台" stroke="none" stroke-width="1" fill="none" fill-rule="evenodd">
        <g id="004-声学参数处理与分析系统-首页1" transform="translate(-1597.000000, -20.000000)" fill="#31C0C4" fill-rule="nonzero">
            <path d="M1599.4901,20.6283695 L1606.47594,20.6283695 C1606.90761,20.6283695 1607.78001,20.4826668 1607.78001,21.1458393 L1607.78001,28.0503185 C1607.78001,28.2942202 1607.79653,28.5378717 1607.57172,28.7059805 C1607.4135,28.8243326 1607.21804,28.8039292 1607.03322,28.8039292 L1599.26078,28.8039292 C1598.85822,28.8039292 1598.37048,28.8797222 1597.97512,28.7780808 C1597.4835,28.6515923 1597.62588,27.8104223 1597.62588,27.4422226 L1597.62588,24.9654649 L1597.62588,21.1393928 C1597.62588,20.7357689 1597.00001,20.7357689 1597.00001,21.1393928 L1597.00001,27.9717717 C1597.00001,28.1659794 1596.99851,28.3491091 1597.02793,28.5421276 C1597.10848,29.0697991 1597.65292,29.4297998 1598.15712,29.4297998 L1607.17623,29.4297998 C1607.94449,29.4297998 1608.40582,28.8782827 1608.40582,28.1391921 L1608.40582,26.0002168 L1608.40582,21.1739409 C1608.40582,20.6430774 1608.08744,20.230128 1607.59713,20.0506909 C1607.41375,19.9835976 1607.19069,20.0024363 1606.99667,20.0024363 L1599.49004,20.0024363 C1599.08648,20.0024989 1599.08648,20.6283695 1599.4901,20.6283695 Z M1602.70295,31.6870647 L1602.70295,29.0974626 L1602.70295,31.6870647 Z M1603.01588,31.6870647 L1603.01588,29.0974626 C1603.01588,28.6939012 1602.39014,28.6939012 1602.39014,29.0974626 L1602.39014,31.6870647 C1602.39014,32.0906886 1603.01588,32.0906886 1603.01588,31.6870647 Z M1598.65025,31.6870647 L1606.75577,31.6870647 L1598.65025,31.6870647 Z M1598.65025,32 L1606.75571,32 C1607.15927,32 1607.15927,31.3741294 1606.75571,31.3741294 L1598.65025,31.3741294 C1598.24668,31.3741294 1598.24668,32 1598.65025,32 Z M1599.99074,24.2489683 L1599.99074,26.8902047 L1599.99074,24.2489683 Z M1599.6778,24.2489683 L1599.6778,26.8902047 C1599.6778,27.2937661 1600.30367,27.2937661 1600.30367,26.8902047 L1600.30367,24.2489683 C1600.30367,23.8453443 1599.6778,23.8453443 1599.6778,24.2489683 Z M1603.83202,24.2489683 L1603.83202,26.8902047 L1603.83202,24.2489683 Z M1603.51908,24.2489683 L1603.51908,26.8902047 C1603.51908,27.2937661 1604.14495,27.2937661 1604.14495,26.8902047 L1604.14495,24.2489683 C1604.14495,23.8453443 1603.51908,23.8453443 1603.51908,24.2489683 Z M1605.57419,24.2489683 L1605.57419,26.8902047 L1605.57419,24.2489683 Z M1605.26125,24.2489683 L1605.26125,26.8902047 C1605.26125,27.2937661 1605.88712,27.2937661 1605.88712,26.8902047 L1605.88712,24.2489683 C1605.88712,23.8453443 1605.26125,23.8453443 1605.26125,24.2489683 Z M1602.04466,22.7820528 L1602.04466,26.8902047 L1602.04466,22.7820528 Z M1601.73172,22.7820528 L1601.73172,26.8902047 C1601.73172,27.2937661 1602.35753,27.2937661 1602.35753,26.8902047 L1602.35753,22.7820528 C1602.35753,22.3784288 1601.73172,22.3784288 1601.73172,22.7820528 Z" id="icon_management"></path>
        </g>
    </g>
</svg>