<?xml version="1.0" encoding="UTF-8"?>
<svg width="11px" height="12px" viewBox="0 0 11 12" version="1.1" xmlns="http://www.w3.org/2000/svg" xmlns:xlink="http://www.w3.org/1999/xlink">
    <!-- Generator: Sketch 50.2 (55047) - http://www.bohemiancoding.com/sketch -->
    <title>icon_user</title>
    <desc>Created with Sketch.</desc>
    <defs></defs>
    <g id="医学数据分析服务平台" stroke="none" stroke-width="1" fill="none" fill-rule="evenodd">
        <g id="004-声学参数处理与分析系统-首页1" transform="translate(-1797.000000, -20.000000)" fill="#31C0C4" fill-rule="nonzero">
            <path d="M1802.14286,32 C1798.73057,32 1797,31.1977143 1797,29.6145714 C1797,28.484 1798.78286,27.7442857 1800.56057,27.494 L1800.56057,27.2591429 C1799.49343,26.4791429 1798.974,25.1171429 1798.974,23.108 C1798.974,21.1622857 1800.13886,20 1802.09057,20 L1802.19514,20 C1804.14771,20 1805.31257,21.1622857 1805.31257,23.108 C1805.31257,23.864 1805.31257,26.1054286 1803.738,27.2617143 L1803.73286,27.4948571 C1805.50714,27.7468571 1807.28571,28.4857143 1807.28571,29.6145714 C1807.28571,31.1977143 1805.55514,32 1802.14286,32 Z M1802.08971,20.75 C1801.01486,20.75 1799.73429,21.1511429 1799.73429,23.0642857 C1799.73429,24.9037143 1800.19714,26.09 1801.14771,26.69 C1801.26771,26.7662857 1801.34143,26.9025714 1801.34143,27.05 L1801.34143,27.89 C1801.34575,28.1011727 1801.1901,28.2815992 1800.98057,28.3082857 C1799.02886,28.5122857 1797.73457,29.2622857 1797.73457,29.6685714 C1797.73457,30.9757143 1800.132,31.25 1802.14286,31.25 C1804.15457,31.25 1806.55114,30.9757143 1806.55114,29.6685714 C1806.55114,29.2622857 1805.25686,28.5114286 1803.30514,28.3082857 C1803.09246,28.2804946 1802.93623,28.0948722 1802.94514,27.8805714 L1802.96229,27.0405714 C1802.96413,26.8988758 1803.03645,26.7674129 1803.15514,26.69 C1804.10829,26.0882857 1804.55229,24.9362857 1804.55229,23.0642857 C1804.55229,21.1511429 1803.27086,20.75 1802.196,20.75 L1802.08971,20.75 Z" id="icon_user"></path>
        </g>
    </g>
</svg>