<?xml version="1.0" encoding="UTF-8"?>
<svg width="20px" height="20px" viewBox="0 0 20 20" version="1.1" xmlns="http://www.w3.org/2000/svg" xmlns:xlink="http://www.w3.org/1999/xlink">
    <!-- Generator: Sketch 50.2 (55047) - http://www.bohemiancoding.com/sketch -->
    <title>nav001</title>
    <desc>Created with Sketch.</desc>
    <defs></defs>
    <g id="菜单样式" stroke="none" stroke-width="1" fill="none" fill-rule="evenodd">
        <g id="菜单-全不选-copy" transform="translate(-35.000000, -19.000000)" fill="#FFFFFF" fill-rule="nonzero">
            <path d="M54.1666829,33.9999414 L53.3332878,33.9999414 L53.3332878,23.9999805 L54.1666048,23.9999805 C54.6268374,23.9999805 54.9999219,23.626896 54.9999219,23.1666634 L54.9999219,21.5424901 C54.9999219,20.1380815 53.8618404,19 52.4574318,19 L50.8332585,19 C50.3730259,19 49.9999414,19.3730845 49.9999414,19.8333171 L49.9999414,20.6666341 L39.9999805,20.6666341 L39.9999805,19.8333171 C39.9999805,19.3730845 39.626896,19 39.1666634,19 L37.5424901,19 C36.1380815,19 35,20.1380815 35,21.5424901 L35,23.1666634 C35,23.626896 35.3730845,23.9999805 35.8333171,23.9999805 L36.6666341,23.9999805 L36.6666341,33.9999414 L35.8333171,33.9999414 C35.3730845,33.9999414 35,34.3730259 35,34.8332585 L35,36.4574318 C35,37.8618404 36.1380815,38.9999219 37.5424901,38.9999219 L39.1666634,38.9999219 C39.626896,38.9999219 39.9999805,38.6268374 39.9999805,38.1666048 L39.9999805,37.3332878 L50.0000195,37.3332878 L50.0000195,38.1666048 C50.0000195,38.6268374 50.373104,38.9999219 50.8333366,38.9999219 L52.4575099,38.9999219 C53.8619185,38.9999219 55,37.8618404 55,36.4574318 L55,34.8332585 C55,34.3730259 54.6269155,33.9999414 54.1666829,33.9999414 Z M40.8332975,28.1666439 L41.6666146,28.1666439 L41.6666146,35.6666146 L40.8332975,35.6666146 L40.8332975,28.1666439 Z M43.3332878,28.1666439 L44.1666048,28.1666439 L44.1666048,35.6666146 L43.3332878,35.6666146 L43.3332878,28.1666439 Z M45.833278,28.1666439 L46.6665951,28.1666439 L46.6665951,35.6666146 L45.833278,35.6666146 L45.833278,28.1666439 L45.833278,28.1666439 Z M48.3332682,28.1666439 L49.1665853,28.1666439 L49.1665853,35.6666146 L48.3332682,35.6666146 L48.3332682,28.1666439 L48.3332682,28.1666439 Z M50.8333366,33.9999414 L50.8332585,33.9999414 L50.8332585,28.1666439 L51.6665755,28.1666439 L51.6665755,33.9999414 L50.8333366,33.9999414 Z M51.6666146,20.6666732 L52.4574318,20.6666732 C52.9413752,20.6666732 53.3332487,21.0585857 53.3332487,21.5424901 L53.3332487,22.3333073 L51.6665755,22.3333073 L51.6665755,20.6666732 L51.6666146,20.6666732 Z M36.6666732,21.5424901 C36.6666732,21.0585466 37.0585857,20.6666732 37.5424901,20.6666732 L38.3333073,20.6666732 L38.3333073,22.3333464 L36.6666732,22.3333464 L36.6666732,21.5424901 Z M39.1666634,23.9999805 C39.626896,23.9999805 39.9999805,23.626896 39.9999805,23.1666634 L39.9999805,22.3333073 L49.9999414,22.3333073 L49.9999414,23.1666243 C49.9999414,23.6268569 50.3730259,23.9999414 50.8332585,23.9999414 L51.6665755,23.9999414 L51.6665755,26.4999316 L38.3333073,26.4999316 L38.3333073,23.9999414 L39.1666634,23.9999414 L39.1666634,23.9999805 Z M38.3333073,28.1666439 L39.1666243,28.1666439 L39.1666243,33.9999414 L38.3333073,33.9999414 L38.3333073,28.1666439 Z M38.3333073,37.3332487 L37.5424901,37.3332487 C37.0585466,37.3332487 36.6666732,36.9413362 36.6666732,36.4574318 L36.6666732,35.6666146 L38.3333464,35.6666146 L38.3333464,37.3332487 L38.3333073,37.3332487 Z M53.3333268,36.4574318 C53.3333268,36.9413752 52.9414143,37.3332487 52.4575099,37.3332487 L51.6666927,37.3332487 L51.6666927,35.6665755 L53.3333659,35.6665755 L53.3333659,36.4574318 L53.3333268,36.4574318 Z" id="nav001"></path>
        </g>
    </g>
</svg>