<?xml version="1.0" encoding="UTF-8"?>
<svg width="20px" height="20px" viewBox="0 0 20 20" version="1.1" xmlns="http://www.w3.org/2000/svg" xmlns:xlink="http://www.w3.org/1999/xlink">
    <!-- Generator: Sketch 50.2 (55047) - http://www.bohemiancoding.com/sketch -->
    <title>nav002</title>
    <desc>Created with Sketch.</desc>
    <defs></defs>
    <g id="菜单样式" stroke="none" stroke-width="1" fill="none" fill-rule="evenodd">
        <g id="菜单-全不选-copy" transform="translate(-35.000000, -74.000000)" fill="#FFFFFF" fill-rule="nonzero">
            <path d="M54.1666829,88.9999414 L53.3332878,88.9999414 L53.3332878,78.9999805 L54.1666048,78.9999805 C54.6268374,78.9999805 54.9999219,78.626896 54.9999219,78.1666634 L54.9999219,76.5424901 C54.9999219,75.1380815 53.8618404,74 52.4574318,74 L50.8332585,74 C50.3730259,74 49.9999414,74.3730845 49.9999414,74.8333171 L49.9999414,75.6666341 L39.9999805,75.6666341 L39.9999805,74.8333171 C39.9999805,74.3730845 39.626896,74 39.1666634,74 L37.5424901,74 C36.1380815,74 35,75.1380815 35,76.5424901 L35,78.1666634 C35,78.626896 35.3730845,78.9999805 35.8333171,78.9999805 L36.6666341,78.9999805 L36.6666341,88.9999414 L35.8333171,88.9999414 C35.3730845,88.9999414 35,89.3730259 35,89.8332585 L35,91.4574318 C35,92.8618404 36.1380815,93.9999219 37.5424901,93.9999219 L39.1666634,93.9999219 C39.626896,93.9999219 39.9999805,93.6268374 39.9999805,93.1666048 L39.9999805,92.3332878 L50.0000195,92.3332878 L50.0000195,93.1666048 C50.0000195,93.6268374 50.373104,93.9999219 50.8333366,93.9999219 L52.4575099,93.9999219 C53.8619185,93.9999219 55,92.8618404 55,91.4574318 L55,89.8332585 C55,89.3730259 54.6269155,88.9999414 54.1666829,88.9999414 Z M51.6666146,75.6666732 L52.4574318,75.6666732 C52.9413752,75.6666732 53.3332487,76.0585857 53.3332487,76.5424901 L53.3332487,77.3333073 L51.6665755,77.3333073 L51.6665755,75.6666732 L51.6666146,75.6666732 Z M36.6666732,76.5424901 C36.6666732,76.0585466 37.0585857,75.6666732 37.5424901,75.6666732 L38.3333073,75.6666732 L38.3333073,77.3333464 L36.6666732,77.3333464 L36.6666732,76.5424901 Z M38.3333073,92.3332487 L37.5424901,92.3332487 C37.0585466,92.3332487 36.6666732,91.9413362 36.6666732,91.4574318 L36.6666732,90.6666146 L38.3333464,90.6666146 L38.3333464,92.3332487 L38.3333073,92.3332487 Z M39.9999805,90.6666146 L39.9999805,89.8332975 C39.9999805,89.3730649 39.626896,88.9999805 39.1666634,88.9999805 L38.3333073,88.9999805 L38.3333073,79.0000195 L39.1666243,79.0000195 C39.6268569,79.0000195 39.9999414,78.6269351 39.9999414,78.1667025 L39.9999414,77.3333073 L49.9999023,77.3333073 L49.9999023,78.1666243 C49.9999023,78.6268569 50.3729868,78.9999414 50.8332194,78.9999414 L51.6665365,78.9999414 L51.6665365,88.9999023 L50.8332975,88.9999023 C50.3730649,88.9999023 49.9999805,89.3729868 49.9999805,89.8332194 L49.9999805,90.6665365 L39.9999805,90.6665365 L39.9999805,90.6666146 Z M53.3333268,91.4574318 C53.3333268,91.9413752 52.9414143,92.3332487 52.4575099,92.3332487 L51.6666927,92.3332487 L51.6666927,90.6665755 L53.3333659,90.6665755 L53.3333659,91.4574318 L53.3333268,91.4574318 Z M44.9999609,79.8332975 C47.3010066,79.8332975 49.1666243,81.6988762 49.1666243,83.9999609 C49.1666243,86.3010457 47.3010066,88.1666243 44.9999609,88.1666243 C42.6989152,88.1666243 40.8332975,86.3010457 40.8332975,83.9999609 C40.8332975,81.6988762 42.6989152,79.8332975 44.9999609,79.8332975 Z M44.9999609,86.4999512 C46.3805415,86.4999512 47.4999512,85.3805415 47.4999512,83.9999609 C47.4999512,82.6193804 46.3805415,81.4999707 44.9999609,81.4999707 C43.6193804,81.4999707 42.4999707,82.6193804 42.4999707,83.9999609 C42.4999707,85.3805415 43.6193804,86.4999512 44.9999609,86.4999512 Z M40.8332975,80.6666536 C40.3732993,80.6666536 39.9999805,80.2932957 39.9999805,79.8332975 C39.9999805,79.3732993 40.3732993,79.0000195 40.8332975,79.0000195 C41.2932957,79.0000195 41.6666146,79.3733384 41.6666146,79.8333366 C41.6666146,80.2933348 41.2932957,80.6666536 40.8332975,80.6666536 Z M49.1666243,78.9999805 C49.6266226,78.9999805 49.9999414,79.3732993 49.9999414,79.8332975 C49.9999414,80.2932957 49.6266226,80.6666146 49.1666243,80.6666146 C48.7066261,80.6666146 48.3333073,80.2932957 48.3333073,79.8332975 C48.3333073,79.3732993 48.7066261,78.9999805 49.1666243,78.9999805 Z M40.8332975,87.3332682 C41.2932957,87.3332682 41.6666146,87.7065871 41.6666146,88.1665853 C41.6666146,88.6265835 41.2932957,88.9999023 40.8332975,88.9999023 C40.3732993,88.9999023 39.9999805,88.6265835 39.9999805,88.1665853 C39.9999805,87.7065871 40.3732993,87.3332682 40.8332975,87.3332682 Z M49.1666243,87.3332682 C49.6266226,87.3332682 49.9999414,87.7066261 49.9999414,88.1666243 C49.9999414,88.6266226 49.6266226,88.9999023 49.1666243,88.9999023 C48.7066261,88.9999023 48.3333073,88.6265835 48.3333073,88.1665853 C48.3333073,87.7065871 48.7066261,87.3332682 49.1666243,87.3332682 Z" id="nav002"></path>
        </g>
    </g>
</svg>